HIERARCHY
ROOT Hips
{
  OFFSET 0.000000 0.000000 0.000000
  CHANNELS 6 Xposition Yposition Zposition Xrotation Yrotation Zrotation
  JOINT Spine
  {
    OFFSET 0.384862 23.362435 -6.545746
    CHANNELS 3 Xrotation Yrotation Zrotation
    JOINT Chest
    {
      OFFSET 0.384862 23.362435 -6.545746
      CHANNELS 3 Xrotation Yrotation Zrotation
      JOINT Neck
      {
        OFFSET 0.000000 3.494450 0.000000
        CHANNELS 3 Xrotation Yrotation Zrotation
        JOINT Head
        {
          OFFSET 0.000000 3.104519 0.000000
          CHANNELS 3 Xrotation Yrotation Zrotation
          End Site
          {
            OFFSET 0.000000 0.931356 0.000000
          }
        }
      }
      JOINT LeftCollar
      {
        OFFSET 3.000000 4.000000 0.000000
        CHANNELS 3 Xrotation Yrotation Zrotation
        JOINT LeftShoulder
        {
          OFFSET 16.753096 -1.874518 -2.350806
          CHANNELS 3 Xrotation Yrotation Zrotation
          JOINT LeftArm
          {
            OFFSET 9.215470 -17.927143 -6.750691
            CHANNELS 3 Xrotation Yrotation Zrotation
            JOINT LeftForeArm
            {
              OFFSET -8.631796 -1.807562 -13.626102
              CHANNELS 3 Xrotation Yrotation Zrotation
              JOINT LeftHand
              {
                OFFSET -3.581741 1.574515 -2.219805
                CHANNELS 3 Xrotation Yrotation Zrotation
                End Site
                {
                  OFFSET -1.074522 0.472355 -0.665942
                }
              }
            }
          }
        }
      }
      JOINT RightCollar
      {
        OFFSET -3.000000 4.000000 0.000000
        CHANNELS 3 Xrotation Yrotation Zrotation
        JOINT RightShoulder
        {
          OFFSET -16.753096 1.874518 2.350806
          CHANNELS 3 Xrotation Yrotation Zrotation
          JOINT RightArm
          {
            OFFSET -4.024878 -26.092607 -12.467419
            CHANNELS 3 Xrotation Yrotation Zrotation
            JOINT RightForeArm
            {
              OFFSET 6.746233 1.826222 -21.720462
              CHANNELS 3 Xrotation Yrotation Zrotation
              JOINT RightHand
              {
                OFFSET 4.773503 3.298478 -5.155945
                CHANNELS 3 Xrotation Yrotation Zrotation
                End Site
                {
                  OFFSET 1.432051 0.989543 -1.546783
                }
              }
            }
          }
        }
      }
    }
  }
  JOINT LeftUpLeg
  {
    OFFSET 9.108096 0.180174 1.189578
    CHANNELS 3 Xrotation Yrotation Zrotation
    JOINT LeftLeg
    {
      OFFSET 8.006705 -41.225060 -10.059709
      CHANNELS 3 Xrotation Yrotation Zrotation
      JOINT LeftFoot
      {
        OFFSET 4.362087 -38.764367 9.241715
        CHANNELS 3 Xrotation Yrotation Zrotation
        End Site
        {
          OFFSET 1.308626 -11.629310 2.772515
        }
      }
    }
  }
  JOINT RightUpLeg
  {
    OFFSET -9.108096 -0.180174 -1.189578
    CHANNELS 3 Xrotation Yrotation Zrotation
    JOINT RightLeg
    {
      OFFSET -2.107032 -32.214779 1.747249
      CHANNELS 3 Xrotation Yrotation Zrotation
      JOINT RightFoot
      {
        OFFSET -6.367369 -42.204761 13.125504
        CHANNELS 3 Xrotation Yrotation Zrotation
        End Site
        {
          OFFSET -1.910211 -12.661428 3.937651
        }
      }
    }
  }
}
MOTION
Frames: 12
Frame Time: 0.083333
0.114321 0.167816 0.185068 11.475646 -1.023103 -4.848885 0.000000 0.000000 0.000000 -15.692669 -0.778226 0.136646 -73.491242 -10.977623 -6.225667 0.000000 0.000000 0.000000 4.068223 -7.936597 6.503653 31.173016 0.622563 26.787057 -26.629148 -13.416093 -35.398746 -19.994827 6.244305 13.908687 0.000000 0.000000 0.000000 4.068223 -7.936597 6.503653 4.169736 7.406569 -0.969589 12.439704 -1.679315 2.801232 -9.999218 0.824082 -0.173411 0.000000 0.000000 0.000000 1.074692 0.912843 12.449947 5.353797 2.536991 5.457564 0.000000 0.000000 0.000000 -17.819015 -1.270201 -5.578441 -8.585614 0.248557 7.875189 0.000000 0.000000 0.000000
0.118922 0.156512 0.184300 12.288178 -1.339378 -6.819717 0.000000 0.000000 0.000000 -15.734529 -2.377651 -0.616731 -71.763202 -14.509328 -5.951673 0.000000 0.000000 0.000000 3.518877 -7.927363 6.603283 22.997635 7.671114 17.280936 -2.559228 -19.339800 -35.803797 -22.987395 3.209299 6.423613 0.000000 0.000000 0.000000 3.518877 -7.927363 6.603283 5.456209 7.327100 4.087590 11.379442 -6.979690 -1.661272 -9.195753 4.470724 1.720868 0.000000 0.000000 0.000000 3.328447 1.784376 14.663694 4.589725 2.227167 4.487399 0.000000 0.000000 0.000000 -16.339980 -1.353057 -4.164365 -13.301501 -1.826538 4.969826 0.000000 0.000000 0.000000
0.122582 0.144204 0.181636 12.424423 -1.419823 -7.339817 0.000000 0.000000 0.000000 -15.733864 -2.018190 -4.958488 -69.908460 -18.332555 -3.760184 0.000000 0.000000 0.000000 3.785427 -7.923011 6.686900 7.845366 12.836485 7.199341 30.852852 -21.168699 -25.882749 -30.527702 -1.819392 9.721386 0.000000 0.000000 0.000000 3.785427 -7.923011 6.686900 6.347262 7.164230 8.733209 9.608088 -8.232198 -2.352855 -10.863515 5.917092 0.669670 0.000000 0.000000 0.000000 2.482055 1.990494 14.482057 2.132498 2.419814 5.627335 0.000000 0.000000 0.000000 -11.894402 -0.675194 -2.899723 -16.091693 -2.657749 4.049216 0.000000 0.000000 0.000000
0.119343 0.137138 0.197520 12.585451 -1.321895 -6.786139 0.000000 0.000000 0.000000 -15.640861 3.439861 -7.149166 -70.950462 -15.057499 1.144252 0.000000 0.000000 0.000000 3.422477 -7.989744 6.537413 3.393559 10.388351 -0.117618 28.375260 -21.949146 -8.405259 -20.440552 4.030356 0.465186 0.000000 0.000000 0.000000 3.422477 -7.989744 6.537413 2.645063 4.753085 6.933572 10.308935 1.879129 4.579006 -12.821224 -0.503650 -4.056734 0.000000 0.000000 0.000000 2.482386 2.413838 12.611549 -2.740331 2.488691 7.825264 0.000000 0.000000 0.000000 -16.603772 -1.381353 -4.016257 -10.384976 -0.777820 6.953234 0.000000 0.000000 0.000000
0.107770 0.137341 0.212874 12.405968 -1.039486 -4.991141 0.000000 0.000000 0.000000 -15.436059 15.617864 -7.542907 -66.214515 -6.677509 7.216121 0.000000 0.000000 0.000000 3.216398 -8.144581 6.226479 5.915677 1.590128 -2.874342 19.851652 -9.453618 -0.654122 -11.867495 -8.954686 -4.919468 0.000000 0.000000 0.000000 3.216398 -8.144581 6.226479 0.199202 -4.269124 0.751189 11.496400 11.223893 12.642083 -10.595559 -6.349857 -2.484403 0.000000 0.000000 0.000000 3.076262 3.266430 8.074444 -10.237021 2.074694 11.043375 0.000000 0.000000 0.000000 -16.499586 -1.220820 -6.712883 -8.048262 0.129970 10.035656 0.000000 0.000000 0.000000
0.087082 0.139884 0.212422 12.973493 -0.414673 -1.377587 0.000000 0.000000 0.000000 -15.194302 27.941326 -7.826871 -59.264546 -3.374374 7.969993 0.000000 0.000000 0.000000 3.768387 -8.153290 6.432190 10.341191 -9.918562 2.285778 10.004112 5.281015 -6.168282 -8.461354 -19.531580 -5.661918 0.000000 0.000000 0.000000 3.768387 -8.153290 6.432190 -3.760511 -16.804192 -1.575872 14.845563 17.442270 12.109951 -6.533790 -9.150657 3.488189 0.000000 0.000000 0.000000 0.161016 3.719193 -0.340464 -8.947851 0.536034 18.952637 0.000000 0.000000 0.000000 -14.101915 -0.898387 -14.307695 -11.165504 0.763728 18.909601 0.000000 0.000000 0.000000
0.064405 0.144713 0.198416 12.256516 0.172098 2.243313 0.000000 0.000000 0.000000 -15.064325 34.390432 -5.917648 -53.984953 -2.074689 4.467048 0.000000 0.000000 0.000000 7.114338 -7.979030 7.719720 15.249172 -13.850216 5.119927 2.323585 13.236078 -11.922583 -7.151395 -23.840124 -4.858795 0.000000 0.000000 0.000000 7.114338 -7.979030 7.719720 -10.403662 -24.403348 -3.560773 14.450925 22.641515 4.467891 -3.137422 -8.773954 7.032998 0.000000 0.000000 0.000000 -2.009011 4.006060 -7.981589 -6.170303 0.395059 27.314661 0.000000 0.000000 0.000000 -8.839637 -0.590337 -23.129851 -18.977381 0.690080 29.332843 0.000000 0.000000 0.000000
0.050350 0.149770 0.187424 12.676089 0.502612 4.290311 0.000000 0.000000 0.000000 -15.048584 35.655258 -5.224948 -52.648974 -0.406963 3.034777 0.000000 0.000000 0.000000 8.559787 -7.991058 8.712705 18.959530 -11.941520 4.835259 -3.376186 8.611463 -13.180554 -8.339636 -22.376425 -2.982087 0.000000 0.000000 0.000000 8.559787 -7.991058 8.712705 -13.362570 -26.410927 -3.928950 12.186583 24.446751 -1.784350 -0.919802 -7.395770 8.678018 0.000000 0.000000 0.000000 -6.657820 3.141734 -10.924571 0.584291 2.044103 31.192887 0.000000 0.000000 0.000000 -10.242296 -0.333736 -21.789216 -16.699848 -0.151785 22.373551 0.000000 0.000000 0.000000
0.052422 0.147171 0.190814 12.049561 0.507865 4.147454 0.000000 0.000000 0.000000 -15.118776 32.283576 -4.921388 -54.426910 -1.064786 0.551224 0.000000 0.000000 0.000000 8.751276 -8.004182 8.398634 18.613356 -9.366959 4.140309 -6.009839 2.553539 -11.856260 -9.706434 -15.628062 1.332577 0.000000 0.000000 0.000000 8.751276 -8.004182 8.398634 -11.615006 -23.763320 -2.140634 8.254511 24.771995 -4.385177 0.660517 -6.678824 9.025675 0.000000 0.000000 0.000000 -4.502066 2.526679 -8.277169 -0.642034 2.311323 27.081190 0.000000 0.000000 0.000000 -19.157406 0.499030 -12.868819 -2.653248 -1.272007 5.116360 0.000000 0.000000 0.000000
0.061337 0.139468 0.182902 11.946401 0.131151 1.895948 0.000000 0.000000 0.000000 -15.282123 22.758372 -5.953799 -59.409095 -7.677663 -6.104233 0.000000 0.000000 0.000000 6.919664 -7.933391 7.387581 14.277847 -4.477143 4.271279 -6.017811 -10.684425 -8.936674 -11.574412 -0.586566 8.004810 0.000000 0.000000 0.000000 6.919664 -7.933391 7.387581 -7.641598 -13.242981 -1.870825 1.113400 14.977710 -2.300878 4.247682 -1.462282 8.309247 0.000000 0.000000 0.000000 0.016703 0.991334 1.526664 -3.711492 2.784749 13.132317 0.000000 0.000000 0.000000 -40.108736 0.819049 -8.766392 28.980193 1.742660 1.265843 0.000000 0.000000 0.000000
0.070572 0.134309 0.148631 11.814664 -0.491751 -1.748184 0.000000 0.000000 0.000000 -15.598774 4.048223 -9.825807 -60.604054 -19.025106 -12.245654 0.000000 0.000000 0.000000 5.358929 -7.600499 6.500938 7.423368 10.711293 4.896930 11.251462 -26.041935 -9.745826 -17.866929 9.357039 6.303778 0.000000 0.000000 0.000000 5.358929 -7.600499 6.500938 -0.111406 5.125538 2.057597 -9.464032 -8.839754 -2.237497 6.335107 11.766948 5.599340 0.000000 0.000000 0.000000 2.762080 -0.541704 12.387452 -0.863444 4.026497 -0.309825 0.000000 0.000000 0.000000 -38.665498 -2.660007 -11.549609 16.655994 5.357588 8.554601 0.000000 0.000000 0.000000
0.079973 0.136293 0.111236 11.179140 -1.123691 -4.976128 0.000000 0.000000 0.000000 -15.933001 -13.863748 -17.887671 -47.213215 -25.928903 -2.218082 0.000000 0.000000 0.000000 7.562883 -6.493400 6.084465 0.002226 32.589979 6.449403 37.606941 -31.067580 -12.192968 -26.909438 4.695016 2.407598 0.000000 0.000000 0.000000 7.562883 -6.493400 6.084465 8.338080 13.105135 23.364081 -11.347723 -26.638165 -21.782052 -7.401297 23.949854 5.369713 0.000000 0.000000 0.000000 4.437779 0.805531 14.931770 -1.800744 3.914023 1.249538 0.000000 0.000000 0.000000 -34.006078 -4.709473 -12.582353 5.437382 5.096869 12.175884 0.000000 0.000000 0.000000
